# xmcd
#
# Track frame offsets:
#	150
#	16762
#	34550
#	69500
#	85025
#	107700
#	123412
#	144047
#	164700
#	190775
#	218637
#	239625
#	258200
#	277775
#	295725
#	319650
#	336500
#
# Disc length: 4774
#
# Revision: 1
# Processed by: cddbd v1.5.1PL0 Copyright (c) Steve Scherf et al.
# Submitted via: ExactAudioCopy v0.90b4
# Normalized: r0:DSETVAR1
#
DISCID=ea12a411
DTITLE=Various Artist - Las Mejores Baladas Del Blues
DYEAR=1995
DGENRE=Ballad
TTITLE0=J. J. Cale - Sho-Biz Blues
TTITLE1=Pps Staples and Bonnie Raitt - World In Motion
TTITLE2=Gary Moore - As The Years Go Passing By
TTITLE3=Walter Wolfman Washington - Girl I Wanna Dance With You
TTITLE4=Colin James - Evening
TTITLE5=John Hammond - Trouble Blues
TTITLE6=John Lee Hooker - Thought I Heard
TTITLE7=Johnny Winter - Please Come Home For Christmas
TTITLE8=Albert Collins - Mastercharge
TTITLE9=Boz Scaggs - Some Charge
TTITLE10=Duke Robillard - Temptation
TTITLE11=Percy Sledge - I've Got Dreams To Remember
TTITLE12=Terry Evans - Natcha Bone Lover
TTITLE13=The Kinsey Report - Key To Your Heart
TTITLE14=BBM - Where In The World
TTITLE15=Lenny McDaniel - Rosa
TTITLE16=Larry McCray - Soul Shine
EXTD=
EXTT0=
EXTT1=
EXTT2=
EXTT3=
EXTT4=
EXTT5=
EXTT6=
EXTT7=
EXTT8=
EXTT9=
EXTT10=
EXTT11=
EXTT12=
EXTT13=
EXTT14=
EXTT15=
EXTT16=
PLAYORDER=
